<?xml version="1.0" encoding="UTF-8"?><svg id="Layer_3" xmlns="http://www.w3.org/2000/svg" xmlns:xlink="http://www.w3.org/1999/xlink" viewBox="0 0 652.67 139.69"><defs><style>.cls-1{clip-path:url(#clippath);}.cls-2,.cls-3,.cls-4{fill:none;}.cls-2,.cls-5{stroke-width:0px;}.cls-6{letter-spacing:-.02em;}.cls-7{font-family:Oswald-Bold, Oswald;font-size:18.26px;font-weight:700;}.cls-8{clip-path:url(#clippath-1);}.cls-9{fill:#e5412c;font-family:OswaldHeavy-Regular, 'Oswald Heavy';font-size:72px;}.cls-10{letter-spacing:-.02em;}.cls-3{stroke-width:8px;}.cls-3,.cls-4{stroke:#e5412c;stroke-miterlimit:10;}.cls-11{letter-spacing:-.02em;}.cls-5{fill:#e4412b;}.cls-4{stroke-width:1.95px;}</style><clipPath id="clippath"><rect class="cls-2" x="442.59" y="58.53" width="194.44" height="41.41"/></clipPath><clipPath id="clippath-1"><rect class="cls-2" x="442.59" y="58.53" width="194.44" height="41.41"/></clipPath></defs><text class="cls-9" transform="translate(41.63 98.32)"><tspan x="0" y="0">ALL </tspan><tspan class="cls-11" x="125.57" y="0">A</tspan><tspan x="165.38" y="0">CCE</tspan><tspan class="cls-6" x="281.52" y="0">S</tspan><tspan x="317.95" y="0">S</tspan></text><rect class="cls-3" x="22.2" y="21.13" width="394.67" height="96.07" rx="20" ry="20"/><rect class="cls-4" x="14.09" y="12.98" width="410.9" height="112.38" rx="28" ry="28"/><g id="Mediabase"><g class="cls-1"><g class="cls-8"><path class="cls-5" d="m632.1,60.81c0-1.28,1.06-2.28,2.46-2.28s2.46,1,2.46,2.28-1.05,2.27-2.46,2.27-2.46-.99-2.46-2.27m4.39,0c0-1.05-.82-1.92-1.93-1.92s-1.93.88-1.93,1.92.82,1.91,1.93,1.91,1.93-.86,1.93-1.91m-2.19.77c0,.22,0,.25.32.27v.12h-1.23v-.12c.32-.02.32-.05.32-.27v-1.64c0-.23,0-.26-.32-.28v-.12h1.4c.43,0,.8.2.8.62,0,.3-.22.57-.56.66l.41.53c.16.2.33.4.47.53v.08h-.6c-.22,0-.43-.59-.77-1.07h-.23v.68Zm0-.82h.22c.33,0,.41-.29.41-.56,0-.37-.16-.5-.4-.5h-.24v1.07Z"/><path class="cls-5" d="m442.59,99.33v-.89c2.04-.44,2.9-1.56,2.9-3.67v-34.71h-2.47v-.89h10.31l3.46,23.05h.37l3.58-23.05h10.31v.89h-2.28v38.38h2.41v.89h-12.04v-.89h2.47v-35.94h-.31l-5.62,36.82h-3.09l-5.5-36.82h-.37v32.49c0,2.22,1.36,3.22,3.15,3.44v.89h-7.29Z"/><path class="cls-5" d="m472.04,99.33v-.89h2.35v-38.38h-2.35v-.89h21.06v15.22h-.8c-2.1-11.05-3.21-14.33-7.1-14.33h-3.21v18.33c3.15-.5,4.69-2.28,5.12-9.66h.86v20.55h-.68c-.86-7.33-1.79-9.72-5.31-10v19.16h1.85c3.21,0,4.63-.67,6.36-6.78,1.3-4.61,1.67-6.22,1.98-8.55h.93v16.22h-21.06Z"/><path class="cls-5" d="m494.85,60.06v-.89h8.33c7.84,0,12.66,1.94,13.21,17.77v6.16c0,7.78-1.61,16.22-10.5,16.22h-11.05v-.89h2.35v-38.38h-2.35Zm9.94,38.38c2.96,0,3.89-.89,3.89-2.66v-31.66c0-3.67-1.05-4-3.89-4.05v38.38Z"/><polygon class="cls-5" points="516.52 99.33 516.52 98.44 519.24 98.44 519.24 60.06 516.52 60.06 516.52 59.17 529.55 59.17 529.55 60.06 526.83 60.06 526.83 98.44 529.73 98.44 529.73 99.33 516.52 99.33"/><path class="cls-5" d="m527.66,99.33v-.89c1.61-.11,2.35-.5,2.72-2.5l7.16-36.77h4.51l6.11,39.27h2.22v.89h-12.17v-.89h2.47l-.93-7.33h-7.23l-.8,5.55c-.18,1.33,1.73,1.78,2.78,1.78v.89h-6.86Zm11.92-9.11l-2.84-19.94h-.12l-3.89,19.94h6.85Z"/><path class="cls-5" d="m549.32,60.06v-.89h10.5c7.41,0,10.68,3.83,10.68,9.39,0,4.89-2.22,8.72-7.9,9.61v.11c5.99,1.5,8.27,5.11,8.27,10.61s-2.04,10.44-11.67,10.44h-9.88v-.89h2.35v-38.38h-2.35Zm9.94,17.72h1.42c2.1,0,2.6-1.28,2.6-3.67v-10.55c0-3.44-1.24-3.5-3.09-3.5h-.92v17.72Zm0,20.66h.92c1.98,0,3.09-.33,3.09-3.33v-12.77c0-2.89-.99-3.55-2.72-3.55h-1.3v19.66Z"/><path class="cls-5" d="m568.83,99.33v-.89c1.61-.11,2.35-.5,2.72-2.5l7.16-36.77h4.51l6.11,39.27h2.22v.89h-12.17v-.89h2.47l-.93-7.33h-7.22l-.8,5.55c-.18,1.33,1.73,1.78,2.78,1.78v.89h-6.85Zm11.92-9.11l-2.84-19.94h-.12l-3.89,19.94h6.86Z"/><path class="cls-5" d="m591.56,82.34h.87c1.73,11.77,4.01,16.5,7.66,16.5,2.65,0,3.27-.95,3.27-4.78,0-8.16-11.61-16.94-11.61-26.22,0-6.33,4.44-9.11,7.66-9.11,2.16,0,3.7,1.11,4.75,2.61l3.15-2.61h.68v16.55h-.99c-2.22-12.72-4.26-15.33-6.91-15.33-2.35,0-2.84,2.05-2.84,3.72,0,7,12.41,17.44,12.41,27.6,0,4.66-2.96,8.67-8.52,8.67-2.16,0-4.2-.72-5.5-2.33l-3.46,2.33h-.62v-17.61Z"/><path class="cls-5" d="m609.46,99.33v-.89h2.34v-38.38h-2.34v-.89h21.05v15.22h-.8c-2.1-11.05-3.21-14.33-7.1-14.33h-3.21v18.33c3.15-.5,4.69-2.28,5.12-9.66h.86v20.55h-.68c-.87-7.33-1.79-9.72-5.31-10v19.16h1.85c3.21,0,4.63-.67,6.36-6.78,1.3-4.61,1.67-6.22,1.97-8.55h.93v16.22h-21.05Z"/></g></g></g><text class="cls-7" transform="translate(442.59 53.72)"><tspan x="0" y="0">POWERED </tspan><tspan class="cls-10" x="76.49" y="0">B</tspan><tspan x="86.93" y="0">Y</tspan></text></svg>